<svg width="500" height="500" viewBox="0 0 500 500" fill="none" xmlns="http://www.w3.org/2000/svg">
<path d="M393.835 72.3919C389.94 66.4125 384.251 66.2408 377.767 66.0451C377.033 66.0229 376.288 66.0004 375.534 65.9691C374.961 65.9427 374.327 65.9529 373.665 65.9635C371.036 66.0059 367.96 66.0554 366.411 63.8404C364.614 61.2724 364.785 56.3097 364.925 52.2127C364.97 50.9181 365.011 49.7092 364.987 48.6905C364.734 39.1733 364.208 29.0636 360.543 25.6839C357.78 23.1482 349.513 23.4995 341.889 23.8235C339.417 23.9285 337.013 24.0306 334.886 24.0306H172.606C169.338 24.0306 165.913 23.7639 162.548 23.5018C155.991 22.9912 149.66 22.4982 145.165 24.0306C138.641 26.2656 138.199 38.0096 137.783 49.0684L137.76 49.6634C137.411 58.7929 135.154 65.8375 127.675 65.1279C118.976 64.3159 110.32 64.0598 106.386 71.953C101.741 81.292 102.699 91.0679 104.415 108.578C104.66 111.079 104.921 113.738 105.183 116.576H396.345C396.511 114.502 396.688 112.454 396.862 110.439C398.226 94.6857 399.414 80.9597 393.835 72.3919Z" fill="#8047F8"/>
<path fill-rule="evenodd" clip-rule="evenodd" d="M127.858 133.943C132.405 195.644 136.903 257.416 141.401 319.189L141.403 319.227C143.846 352.767 146.288 386.308 148.738 419.838H158.028C158.661 425.087 159.386 431.567 160.149 438.398C161.699 452.266 163.412 467.586 164.852 477H165.88C175.342 473.529 240.761 445.496 240.79 333.889C240.778 333.571 240.789 333.253 240.822 332.937H224.66C223.877 332.929 223.119 332.667 222.501 332.191C221.883 331.715 221.441 331.051 221.241 330.302C219.666 326.401 218.396 322.386 217.443 318.293C207.935 323.676 200.384 331.897 195.867 341.783C191.58 331.658 191.019 320.362 194.282 309.868C197.545 299.375 204.425 290.352 213.72 284.375C213.84 251.808 226.002 220.414 247.906 196.136L248.248 195.835C248.884 195.283 249.699 194.976 250.545 194.97C251.034 194.974 251.516 195.078 251.962 195.277C252.414 195.478 252.818 195.771 253.148 196.136C275.307 220.447 287.405 252.143 287.03 284.902C296.498 290.712 303.518 299.729 306.787 310.279C310.056 320.83 309.352 332.197 304.806 342.272C300.314 332.371 292.757 324.143 283.231 318.782C282.649 322.75 281.578 326.631 280.041 330.339C279.509 331.92 278.445 332.937 277.382 332.937H260.146C260.173 333.126 260.192 333.316 260.203 333.507L260.21 333.551V333.643C260.216 333.807 260.216 333.972 260.21 334.137C260.446 448.947 330 475.007 335.863 477H337.868C338.38 467.957 340.047 455.479 341.672 443.314C342.791 434.931 343.891 426.697 344.579 419.838H353.977C356.985 377.604 360.079 335.487 363.173 293.37L363.174 293.347L363.175 293.335C367.132 239.462 371.09 185.588 374.868 131.463H128.459C127.75 131.602 127.799 132.765 127.858 133.943ZM250.545 194.97L250.527 194.969H250.565L250.545 194.97Z" fill="#8047F8"/>
</svg>
